<svg width="182" height="81" viewBox="0 0 182 81" fill="none" xmlns="http://www.w3.org/2000/svg">
<g clip-path="url(#clip0_27_26)">
<path d="M3.25329 29.2312C2.11179 26.1735 -5.18473 22.8478 -8.69031 21.5672L-27.8157 100.851C43.574 100.642 187.822 99.4721 193.698 96.4633C201.044 92.7024 198.69 74.8377 198.378 72.6438C198.066 70.4499 190.127 35.2847 186.353 35.2847C182.579 35.2847 179.164 46.4313 170.538 55.5092C161.911 64.5871 150.229 47.742 143.041 42.5063C135.852 37.2706 128.815 48.661 124.059 55.5092C119.303 62.3574 111.535 51.0499 109.949 46.4313C108.364 41.8128 99.9614 12.5086 93.937 11.3938C87.9126 10.279 85.376 32.257 77.4491 49.7757C69.5222 67.2945 63.4977 53.7573 53.9855 44.3608C44.4732 34.9644 37.339 49.1387 29.7292 56.624C22.1194 64.1092 4.68018 33.0533 3.25329 29.2312Z" fill="url(#paint0_linear_27_26)"/>
</g>
<defs>
<linearGradient id="paint0_linear_27_26" x1="-37.2956" y1="100.851" x2="163.11" y2="100.851" gradientUnits="userSpaceOnUse">
<stop stop-color="#6A84A9"/>
<stop offset="1" stop-color="#7E89A7"/>
</linearGradient>
<clipPath id="clip0_27_26">
<rect width="182" height="80" fill="white" transform="translate(0 0.331055)"/>
</clipPath>
</defs>
</svg>
