<svg width="39" height="39" viewBox="0 0 39 39" fill="none" xmlns="http://www.w3.org/2000/svg">
<path d="M19.7672 0.678131C24.951 0.678131 29.3667 2.50204 33.0146 6.24586C36.7584 9.89367 38.5823 14.3095 38.5823 19.4932C38.5823 24.6769 36.7584 29.0927 33.0146 32.7405C29.3667 36.4844 24.951 38.3083 19.7672 38.3083C14.5835 38.3083 10.1677 36.4844 6.51987 32.7405C2.77606 29.0927 0.952148 24.6769 0.952148 19.4932C0.952148 14.3095 2.77606 9.89367 6.51987 6.24586C10.0717 2.50204 14.4875 0.678131 19.7672 0.678131Z" fill="#5D2CA5"/>
<path fill-rule="evenodd" clip-rule="evenodd" d="M9.3037 19.9732C9.11171 20.0692 8.91972 20.0692 8.72773 20.1652C8.53574 20.2612 8.43975 20.3572 8.24776 20.4532C6.80783 21.1251 5.65588 22.2771 4.69593 23.429C4.50394 23.813 4.31195 24.101 4.11996 24.389C3.73598 25.0609 3.83197 24.9649 4.11996 25.4449C4.59994 26.3089 5.55989 27.5568 6.32785 28.1328L7.19181 28.8048C8.82373 29.9567 10.0717 30.2447 12.0876 30.4367C12.6635 30.5327 13.2395 30.4367 13.6235 30.4367C14.0075 31.6846 14.9674 32.8366 15.9274 33.6045C16.5993 34.0845 19.0952 35.4284 19.7672 35.4284C20.3432 35.4284 22.0711 34.5645 22.647 34.1805C23.991 33.4125 25.5269 31.9726 25.8149 30.4367C26.1029 28.9007 26.1029 28.2288 25.6229 26.8848C25.2389 26.0209 24.5669 24.8689 23.991 24.293C23.703 24.389 23.415 24.677 23.031 24.773C22.647 24.9649 22.2631 25.0609 21.7831 24.9649C21.5911 25.1569 18.9032 25.0609 18.3273 25.0609C16.3114 25.0609 14.7754 24.197 13.9115 22.4691C13.4315 21.4131 13.4315 20.6452 13.4315 19.3972C12.6635 19.3972 11.9916 19.3972 11.2236 19.4932C10.5516 19.5892 9.87967 19.8772 9.3037 19.9732Z" fill="#D2D1F1"/>
<path fill-rule="evenodd" clip-rule="evenodd" d="M19.7671 35.4284C19.2872 35.4284 17.5592 34.5645 16.8873 34.1805C15.6393 33.4125 14.0074 31.9726 13.7194 30.4367C13.4315 28.9007 13.4315 28.2288 14.0074 26.8848C14.2954 26.0209 15.0634 24.8689 15.5433 24.293C15.8313 24.389 16.2153 24.6769 16.5033 24.7729C16.8873 24.9649 17.3673 25.0609 17.7512 24.9649C17.9432 25.0609 18.9032 25.1569 19.7671 25.0609V35.4284Z" fill="#DDDCF3"/>
<path fill-rule="evenodd" clip-rule="evenodd" d="M23.9907 24.293C24.5667 24.8689 25.2387 26.0209 25.6226 26.8848C26.1026 28.2288 26.1026 28.9007 25.8146 30.4367C26.2946 30.4367 26.8706 30.5327 27.4466 30.4367C28.8865 30.3407 30.1344 30.0527 31.2864 29.4767C32.2463 28.9967 32.5343 28.7088 33.2063 28.1328C34.0702 27.5568 34.9342 26.4049 35.4142 25.4449C35.7981 24.9649 35.7981 24.9649 35.5102 24.389C34.3582 22.5651 32.8223 21.0291 30.8064 20.1652C30.6144 20.0692 30.4224 20.0692 30.2304 19.9732C29.6544 19.8772 29.0785 19.5892 28.3105 19.4932C27.6385 19.3972 26.8706 19.3972 26.1026 19.3972C26.1026 20.6452 26.1026 21.5091 25.6226 22.4691C25.0467 23.717 24.4707 23.909 23.9907 24.293Z" fill="#B6B4E8"/>
<path fill-rule="evenodd" clip-rule="evenodd" d="M9.30329 19.9732C9.87926 19.8772 10.5512 19.5892 11.2232 19.4932C11.9912 19.3972 12.6631 19.3972 13.4311 19.3972V18.5333C15.063 18.3413 17.1749 18.4373 18.3268 19.5892C18.5188 19.7812 18.6148 19.8772 18.8068 19.9732C18.2308 17.5733 17.5589 16.2294 16.2149 14.7894L14.295 12.6776C13.8151 12.0056 13.6231 12.0056 12.9511 11.0456C12.8551 10.8536 12.7591 10.5657 12.5671 10.4697C11.4152 10.1817 9.87926 10.4697 9.0153 10.7576C8.05535 10.9496 8.15134 10.9496 7.95935 11.7176C7.28739 13.6375 7.47938 15.3654 7.95935 17.1893C8.15134 17.7653 8.34333 18.1493 8.53532 18.6293L9.30329 19.9732Z" fill="#B6B4E8"/>
<path fill-rule="evenodd" clip-rule="evenodd" d="M27.0626 10.4697C26.8707 10.5657 26.8707 10.6617 26.6787 11.0456C25.9107 12.1976 25.1427 12.7736 24.4708 13.6375C24.2788 13.8295 24.1828 13.9255 23.9908 14.2135C22.4549 15.8454 21.2069 17.4773 20.9189 19.8772C21.2069 19.6852 21.5909 19.0133 22.9348 18.6293C23.6068 18.4373 25.3347 18.4373 26.1027 18.5333V19.3972C26.8707 19.3972 27.6386 19.3972 28.3106 19.4932C29.0785 19.5892 29.6545 19.8772 30.2305 19.9732C30.5185 19.4932 30.8065 19.1092 30.9984 18.6293C31.9584 16.8054 32.3424 14.0215 31.6704 11.9096C31.3824 10.9497 31.4784 11.0456 30.7105 10.7577C30.1345 10.5657 27.8306 10.0857 27.0626 10.4697Z" fill="#9D9AE0"/>
<path fill-rule="evenodd" clip-rule="evenodd" d="M13.4312 19.3972C13.4312 20.6451 13.4312 21.4131 13.9111 22.469C14.7751 24.1969 16.311 25.0609 18.3269 25.0609C18.9029 25.0609 21.5907 25.1569 21.7827 24.9649C21.3988 24.8689 20.2468 24.9649 19.7668 24.9649C19.7668 24.0049 19.7668 23.141 19.6708 22.181C19.6708 21.3171 19.0949 20.5491 18.8069 19.9731C18.6149 19.8771 18.5189 19.7811 18.3269 19.5891C17.175 18.4372 15.0631 18.3412 13.4312 18.5332V19.3972Z" fill="#FFC036"/>
<path fill-rule="evenodd" clip-rule="evenodd" d="M20.9188 19.8772L20.8228 19.9732L20.7268 20.0692C20.6309 20.2612 20.5349 20.3572 20.4389 20.5492C20.3429 20.7412 20.2469 20.8372 20.1509 21.0291C19.8629 21.6051 19.9589 21.6051 19.8629 21.8931C19.7669 22.1811 19.9589 22.1811 19.6709 22.1811L19.7669 25.0609C21.1108 25.1569 22.8387 25.1569 23.9907 24.293C24.3747 24.101 25.0466 23.717 25.6226 22.4691C26.1026 21.5091 26.1026 20.6452 26.1026 19.3972V18.5333C25.3346 18.4373 23.6067 18.4373 22.9347 18.6293C21.5908 19.0132 21.2068 19.6852 20.9188 19.8772Z" fill="#F7A920"/>
<path fill-rule="evenodd" clip-rule="evenodd" d="M14.4873 9.79768C14.5833 10.2777 16.5992 12.4855 16.8872 12.6775C17.3672 13.1575 18.5191 14.5974 18.9031 15.1734C18.9991 15.2694 18.9991 15.3654 18.9991 15.3654L19.2871 15.6534C19.1911 14.7894 19.767 13.5415 19.767 12.7735V5.18991C19.4791 5.3819 18.9991 5.3819 18.0391 5.86188C17.5592 6.14986 16.8872 6.53384 16.5992 6.91783C16.0232 7.3978 15.8312 7.4938 15.3513 8.16576C15.1593 8.45375 15.0633 8.64574 14.8713 8.93373C14.6793 9.22171 14.5833 9.5097 14.4873 9.79768Z" fill="#B6B4E8"/>
<path fill-rule="evenodd" clip-rule="evenodd" d="M12.5675 10.4696C12.7595 10.5656 12.8555 10.8536 12.9515 11.0456C13.6234 12.0055 13.8154 12.0055 14.2954 12.6775L16.2153 14.7894C17.5592 16.2293 18.2312 17.5733 18.8072 19.9731C19.0952 20.5491 19.6711 21.3171 19.6711 22.181C19.9591 22.181 19.7671 22.181 19.8631 21.8931C20.0551 21.3171 20.0551 21.0291 20.4391 20.5491C20.5351 20.3571 20.6311 20.2611 20.7271 20.0691C20.5351 19.8772 20.5351 19.2052 20.4391 18.8212C20.3431 18.4372 20.2471 18.0532 20.1511 17.6693C19.9591 17.2853 19.2871 15.7494 19.2871 15.6534L18.9992 15.3654C18.9992 15.3654 18.9992 15.2694 18.9032 15.1734C18.5192 14.5974 17.3672 13.1575 16.8873 12.6775C16.5993 12.4855 14.5834 10.2776 14.4874 9.79765C14.1034 9.41367 13.8154 8.45372 13.8154 7.97374C13.7194 7.10979 14.1994 7.30178 11.8955 7.30178C11.8955 8.64571 12.1835 9.50967 12.5675 10.4696Z" fill="#E07726"/>
<path fill-rule="evenodd" clip-rule="evenodd" d="M21.2071 5.66991C21.3031 6.91785 21.1111 8.45377 20.8231 9.50972C20.6311 10.0857 20.4391 10.5657 20.3431 11.1416C20.1511 11.6216 20.0551 12.3896 19.7671 12.7736C19.7671 13.5415 19.1912 14.7895 19.2872 15.6534C19.2872 15.7494 19.9591 17.2853 20.1511 17.6693C20.2471 18.0533 20.3431 18.4373 20.4391 18.8213C20.5351 19.2052 20.5351 19.8772 20.7271 20.0692L20.8231 19.9732C20.7271 19.7812 20.8231 20.0692 20.8231 19.8772C20.6311 19.0132 21.2071 14.8855 21.3991 14.3095C21.591 13.1575 22.071 11.9096 22.359 10.7577C22.551 10.1817 22.743 9.60571 22.839 9.02974C22.839 8.64576 23.031 7.10984 23.127 7.01384V3.55801H21.2071V5.66991Z" fill="#DB5B0D"/>
<path fill-rule="evenodd" clip-rule="evenodd" d="M25.1427 9.89366C24.9507 10.2776 24.4708 10.8536 24.2788 11.1416C23.9908 11.3336 23.8948 11.4296 23.7028 11.6216L21.5909 14.0215C21.4949 14.2134 21.3989 14.2134 21.3989 14.3094C21.2069 14.8854 20.6309 19.0132 20.8229 19.8772C20.8229 20.0692 20.7269 19.7812 20.8229 19.9732L20.9189 19.8772C21.2069 17.4773 22.4549 15.8454 23.9908 14.2134C24.1828 13.9255 24.2788 13.8295 24.4708 13.6375C25.1427 12.7735 25.9107 12.1975 26.6786 11.0456C26.8706 10.6616 26.8706 10.5656 27.0626 10.4696C27.0626 10.1816 27.2546 9.98966 27.3506 9.79766C27.6386 8.83771 27.7346 8.35774 27.7346 7.30179H25.9107C25.9107 8.16575 25.5267 9.41368 25.1427 9.89366Z" fill="#BE360D"/>
<path fill-rule="evenodd" clip-rule="evenodd" d="M21.3989 14.3095C21.3989 14.2135 21.4949 14.2135 21.5909 14.0215L23.7028 11.6216C23.8948 11.4296 23.9908 11.3336 24.2788 11.1416C24.4708 10.8536 24.9507 10.2777 25.1427 9.89368C24.9507 9.70169 24.9507 9.31771 24.7588 9.02972C24.3748 8.26176 23.7988 7.4938 23.1268 7.01382C23.0308 7.10982 22.8389 8.64574 22.8389 9.02972C22.7429 9.6057 22.5509 10.1817 22.3589 10.7576C22.0709 11.9096 21.5909 13.1575 21.3989 14.3095Z" fill="#9D9AE0"/>
<path fill-rule="evenodd" clip-rule="evenodd" d="M19.7671 12.7735C20.0551 12.3896 20.1511 11.6216 20.3431 11.1416C20.4391 10.5656 20.631 10.0857 20.823 9.5097C21.111 8.45375 21.303 6.91783 21.207 5.66989C21.015 5.66989 20.727 5.4779 20.5351 5.4779C20.3431 5.3819 19.9591 5.28591 19.7671 5.18991V12.7735Z" fill="#9D9AE0"/>
</svg>
