<svg width="182" height="81" viewBox="0 0 182 81" fill="none" xmlns="http://www.w3.org/2000/svg">
<g clip-path="url(#clip0_27_29)">
<path d="M24.5458 56.4859C19.3994 53.7332 4.74759 73.3916 -1.93501 83.5649C-6.31345 89.1157 -15.0703 100.624 -15.0703 102.249C-15.0703 104.28 -1.93501 110.984 -0.0381145 111.999C1.85878 113.015 152.315 121.14 156.175 121.14C159.263 121.14 182.65 108.546 193.958 102.249L190.911 69.1372C184.73 51.9781 171.275 17.0275 166.905 14.4979C161.444 11.3359 148.364 40.8001 143.621 46.8367C138.878 52.8733 126.662 39.5066 123.643 35.9134C120.625 32.3202 114.46 28.6584 104.137 41.9736C93.8145 55.2887 87.0821 44.6666 75.8615 34.194C64.6408 23.7214 57.1604 54.2415 51.4753 63.218C45.7901 72.1946 30.9789 59.9268 24.5458 56.4859Z" fill="url(#paint0_linear_27_29)"/>
</g>
<defs>
<linearGradient id="paint0_linear_27_29" x1="10.8601" y1="106.448" x2="322.809" y2="112.21" gradientUnits="userSpaceOnUse">
<stop stop-color="#70517D"/>
<stop offset="0.691384" stop-color="#71527E"/>
</linearGradient>
<clipPath id="clip0_27_29">
<rect width="182" height="80" fill="white" transform="translate(0 0.331055)"/>
</clipPath>
</defs>
</svg>
